<?xml version="1.0" standalone="no"?>
<!DOCTYPE svg PUBLIC "-//W3C//DTD SVG 20010904//EN"
 "http://www.w3.org/TR/2001/REC-SVG-20010904/DTD/svg10.dtd">
<svg version="1.0" xmlns="http://www.w3.org/2000/svg"
 width="693.000000pt" height="1015.000000pt" viewBox="0 0 693.000000 1015.000000"
 preserveAspectRatio="xMidYMid meet">

<g transform="translate(0.000000,1015.000000) scale(0.100000,-0.100000)"
fill="#000000" stroke="none">
<path d="M0 5075 l0 -5075 941 0 941 0 -8 32 c-6 31 -18 62 -50 133 -31 71
-17 183 22 168 8 -3 14 -1 14 5 0 6 -6 12 -12 15 -10 3 -8 9 5 24 22 26 22 39
-4 56 -17 12 -18 17 -7 24 8 4 18 17 22 28 8 20 8 20 16 -1 9 -22 40 -41 40
-24 0 6 7 10 15 10 9 0 15 -9 15 -25 0 -18 -5 -25 -20 -25 -18 0 -19 -5 -14
-47 3 -32 1 -49 -8 -54 -10 -7 -10 -9 0 -9 6 0 12 -9 12 -20 0 -11 7 -20 15
-20 10 0 15 11 15 35 0 25 6 37 21 45 11 7 23 9 27 6 3 -4 5 -85 3 -181 l-2
-175 107 0 107 0 -7 48 c-20 130 -21 119 12 127 22 4 43 0 73 -15 26 -14 52
-20 69 -17 14 3 49 0 76 -7 45 -11 49 -15 49 -42 0 -16 11 -44 24 -61 l25 -33
183 0 184 0 10 30 c10 28 29 42 29 21 0 -5 27 -11 60 -13 36 -3 66 -11 78 -21
17 -16 150 -17 1935 -17 l1917 0 0 955 c0 933 0 955 -19 965 -11 5 -29 10 -40
10 -11 0 -26 8 -33 18 -17 23 -62 42 -101 42 -30 1 -31 2 -13 15 10 8 24 16
30 18 18 7 -17 37 -50 42 -48 8 -164 47 -164 55 0 9 36 20 68 20 12 0 31 5 41
12 34 21 151 -65 151 -112 0 -22 25 -43 78 -63 23 -10 45 -17 47 -17 3 0 5
113 5 251 l0 251 -27 -3 c-16 -1 -41 4 -58 11 -26 10 -42 15 -65 19 -3 1 2 6
10 11 12 8 10 10 -10 10 -29 0 -158 59 -164 76 -6 16 24 8 104 -26 36 -15 98
-41 138 -58 l72 -31 0 270 0 270 -22 8 -23 8 23 7 22 7 0 1277 c-1 1252 -1
1277 -20 1300 -24 29 -96 52 -164 52 -45 0 -49 -2 -35 -15 8 -8 43 -18 79 -21
69 -7 84 -17 70 -45 -8 -13 -19 -16 -57 -11 -26 2 -51 11 -56 18 -8 14 -64 44
-81 44 -7 0 -29 9 -50 20 -26 13 -48 17 -69 13 -25 -5 -29 -3 -24 10 3 9 -3
27 -15 43 -20 25 -22 26 -29 8 -7 -17 -8 -17 -8 -1 -1 9 -7 17 -15 17 -12 0
-33 61 -28 83 1 4 -3 7 -9 7 -6 0 -18 9 -27 19 -10 11 -39 25 -67 31 -57 14
-79 14 -117 5 -23 -6 -28 -4 -28 11 0 11 14 27 30 36 35 20 37 37 12 68 -15
19 -22 21 -39 12 -11 -6 -23 -25 -26 -42 -5 -22 -12 -30 -28 -30 -11 0 -35
-16 -52 -36 -32 -36 -63 -54 -102 -59 -40 -6 -92 -30 -87 -43 5 -17 -37 -15
-68 3 -38 22 -50 18 -50 -15 0 -20 -5 -30 -15 -30 -8 0 -24 -9 -35 -20 -23
-23 -33 -12 -28 30 2 18 -3 25 -20 29 -35 9 -27 25 15 31 51 7 59 41 14 65
-26 13 -31 21 -31 52 l0 36 20 -26 c12 -15 36 -29 56 -33 20 -4 46 -18 59 -32
26 -27 77 -37 110 -20 11 6 42 32 69 57 27 25 57 54 68 64 14 13 16 22 8 37
-5 10 -10 21 -10 23 0 12 84 15 165 7 104 -9 194 -40 239 -80 27 -25 29 -29
14 -35 -11 -4 -24 0 -34 10 -17 17 -69 17 -69 0 0 -5 12 -11 28 -13 15 -2 32
-12 37 -23 13 -23 36 -25 44 -4 8 22 36 18 36 -5 0 -13 10 -25 28 -33 51 -22
124 -72 166 -112 44 -43 74 -60 121 -69 17 -3 47 -10 68 -15 l37 -9 0 54 c0
53 -1 55 -30 61 -31 6 -47 19 -36 31 4 3 20 -2 36 -12 l30 -17 0 336 0 336
-25 -18 c-13 -10 -25 -22 -25 -26 0 -12 -27 -37 -39 -37 -6 0 -11 -5 -11 -10
0 -6 -11 -15 -25 -20 -15 -6 -32 -25 -41 -46 -12 -29 -17 -34 -29 -24 -12 10
-15 9 -15 -4 0 -12 -10 -16 -39 -16 -33 0 -39 4 -43 24 -4 18 3 30 29 50 33
27 33 27 33 116 0 54 4 90 11 92 15 5 28 334 15 371 -15 40 -65 38 -111 -5
-38 -34 -44 -48 -20 -48 32 0 16 -21 -54 -70 -15 -10 -21 -25 -21 -51 0 -21
-4 -39 -10 -41 -5 -1 -14 -75 -20 -163 -6 -88 -15 -182 -20 -208 -6 -28 -6
-55 -1 -65 4 -9 9 -37 9 -62 1 -35 -1 -41 -9 -27 -5 9 -17 17 -25 17 -13 0
-12 -4 1 -30 13 -25 20 -29 40 -24 15 4 25 2 25 -5 0 -6 -9 -11 -21 -11 -18 0
-20 -4 -15 -25 5 -20 3 -25 -12 -25 -23 0 -55 23 -108 79 -39 40 -45 43 -78
37 -41 -8 -126 23 -164 59 -21 20 -22 25 -11 43 11 18 10 24 -6 43 -11 12 -39
30 -61 40 -23 10 -47 26 -54 34 -7 8 -25 15 -40 15 -15 0 -45 6 -67 14 -24 8
-46 11 -54 6 -9 -6 -19 -3 -30 9 -10 10 -38 22 -63 25 -25 4 -46 11 -46 17 0
5 -8 9 -18 9 -10 0 -22 4 -27 8 -6 5 -26 15 -45 22 -19 7 -47 22 -62 32 -17
12 -36 17 -48 13 -16 -5 -20 -2 -21 17 -1 13 -1 28 0 35 1 6 -3 14 -9 18 -5 3
-10 14 -10 24 0 11 -20 26 -60 44 -59 27 -65 36 -60 82 2 16 -1 17 -13 7 -12
-10 -20 -7 -45 14 -19 17 -28 33 -25 45 7 25 13 24 47 -11 19 -19 32 -26 36
-19 4 6 8 63 9 127 1 73 9 147 20 197 40 171 45 232 27 324 -9 46 -15 95 -12
110 3 14 13 101 21 193 9 92 18 174 21 182 4 10 23 16 51 18 45 3 46 4 59 47
12 41 11 48 -12 98 -14 29 -29 53 -32 53 -4 0 -13 9 -20 21 -11 17 -10 37 8
119 23 114 67 364 81 460 9 63 36 204 64 325 31 134 39 237 39 485 0 307 -8
427 -37 498 l-21 52 -422 0 c-367 0 -427 -2 -460 -16 -50 -21 -183 -23 -249
-4 -43 12 -368 15 -2252 17 l-2203 3 0 -5075z m4301 4254 c63 -22 139 -47 169
-56 66 -18 95 -32 65 -32 -22 0 -48 5 -199 39 l-99 22 -151 -21 c-83 -12 -171
-28 -196 -35 -39 -12 -324 -112 -373 -132 -16 -6 -18 -14 -12 -56 6 -45 5 -50
-14 -55 -12 -3 -21 -13 -21 -25 0 -10 -6 -18 -12 -17 -7 1 -24 1 -38 -1 -23
-1 -23 -2 -5 -10 11 -4 30 -6 42 -3 16 3 21 0 20 -14 -2 -12 6 -19 24 -21 26
-3 26 -4 21 -71 -4 -60 -2 -71 17 -90 l21 -21 -22 -24 c-13 -12 -38 -33 -55
-45 -18 -12 -32 -25 -31 -29 4 -17 -15 -52 -28 -52 -8 0 -18 -9 -22 -20 -7
-19 -9 -19 -27 -5 -19 14 -19 16 -2 26 26 15 74 60 62 57 -13 -2 -68 24 -77
36 -3 5 -22 9 -42 8 -20 -1 -36 1 -36 5 0 16 107 103 127 103 32 0 53 10 53
26 0 13 -11 18 -37 15 -19 -2 -25 17 -12 37 19 30 4 52 -35 52 -49 0 -122 -34
-129 -59 -5 -20 -11 -21 -99 -19 -85 1 -97 -1 -134 -25 -23 -14 -58 -32 -78
-41 -37 -16 -96 -94 -96 -128 0 -10 -4 -18 -9 -18 -8 0 -31 -74 -31 -100 0 -7
8 -9 20 -5 34 11 23 -18 -16 -43 -20 -13 -38 -21 -42 -18 -3 3 0 6 8 6 10 0
10 3 0 15 -16 20 -1 108 37 204 23 60 47 95 141 202 62 71 116 129 120 129 4
0 38 22 75 49 86 63 251 147 392 201 61 23 130 51 155 62 55 25 150 34 216 20
37 -8 62 -7 104 3 102 25 165 19 291 -26z m-186 -99 c-16 -5 -70 -16 -120 -25
-76 -13 -94 -20 -118 -45 -15 -17 -36 -30 -45 -30 -12 0 -13 -3 -5 -8 8 -5 -2
-8 -23 -8 -19 0 -39 -6 -44 -14 -5 -9 -32 -15 -74 -16 -36 -2 -66 -2 -66 0 0
7 147 75 176 81 16 4 49 16 74 28 57 26 149 45 220 45 47 0 51 -1 25 -8z m258
1 c23 -6 77 -17 120 -26 51 -11 77 -21 77 -30 0 -8 11 -31 25 -51 13 -20 27
-51 31 -70 3 -19 10 -37 15 -39 4 -3 19 -30 33 -59 14 -30 32 -56 41 -60 8 -3
15 -10 15 -16 0 -6 -42 -10 -112 -10 -90 0 -110 3 -100 13 7 6 27 17 45 23 21
7 31 17 29 28 -2 9 1 16 7 16 14 0 -17 57 -35 64 -8 3 -13 9 -10 14 2 4 -30
21 -72 37 -85 33 -110 49 -123 83 -6 15 -17 22 -34 22 -14 0 -25 5 -25 12 0 6
-10 22 -22 35 l-21 23 37 0 c20 0 56 -4 79 -9z m335 -54 c85 -43 208 -121 247
-157 17 -15 48 -36 70 -46 45 -21 243 -214 265 -259 8 -16 22 -41 32 -54 10
-13 18 -34 18 -47 0 -12 5 -26 10 -29 8 -5 8 -11 0 -20 -9 -11 -16 -11 -42 3
-17 9 -42 27 -56 40 -22 19 -62 31 -62 17 0 -2 16 -20 35 -39 34 -35 44 -56
26 -56 -6 0 -16 8 -23 18 -7 10 -29 28 -49 40 -20 12 -44 37 -53 55 -21 43
-36 60 -68 81 -24 16 -28 16 -28 3 0 -8 -9 -25 -20 -38 l-20 -24 -19 23 c-11
12 -28 22 -38 22 -15 0 -18 -7 -18 -37 0 -21 4 -43 8 -49 9 -16 76 -25 98 -14
14 8 29 3 63 -17 50 -30 62 -49 45 -69 -10 -13 -24 -11 -64 7 -78 35 -168 60
-244 69 -49 5 -96 13 -104 16 -21 8 -224 -13 -301 -31 -68 -16 -261 -91 -316
-122 -112 -65 -156 -94 -232 -153 -45 -35 -85 -68 -87 -73 -3 -7 -22 -21 -99
-72 -26 -17 -52 -44 -52 -54 0 -10 -70 -71 -81 -71 -3 0 -30 -22 -59 -49 -30
-28 -63 -54 -75 -60 -49 -23 -185 -59 -206 -55 -54 12 -55 14 -29 34 14 11 31
20 38 20 7 0 25 14 39 30 19 23 33 30 62 30 40 0 61 14 61 40 0 9 15 24 33 34
17 9 24 14 15 12 -14 -4 -18 1 -18 23 0 16 -7 34 -15 41 -20 16 -9 30 62 77
29 19 56 41 61 48 9 16 144 103 203 131 25 12 63 33 85 46 22 14 73 38 114 52
41 15 79 31 85 36 6 5 49 21 95 36 89 28 118 43 85 45 -58 3 -103 -5 -132 -22
-42 -26 -93 -41 -93 -27 0 5 9 12 20 15 11 3 20 14 20 24 0 14 7 19 28 19 53
0 177 32 197 50 17 16 29 18 76 11 68 -9 85 -5 68 16 -18 21 4 32 51 26 22 -3
40 -1 44 6 5 8 13 8 27 1 23 -13 16 -30 -12 -30 -21 0 -27 -34 -7 -46 17 -11
291 -5 302 6 25 25 9 90 -22 90 -24 0 -64 29 -56 42 4 5 21 7 39 4 22 -5 36
-2 45 9 19 23 47 18 54 -10 3 -13 15 -29 26 -35 35 -19 23 8 -39 83 -32 40
-64 90 -72 112 -7 22 -23 56 -35 75 -12 19 -33 61 -47 92 -14 31 -31 59 -36
63 -14 8 -14 25 0 25 6 0 41 -15 77 -33z m-668 -187 c0 -5 -2 -10 -4 -10 -3 0
-8 5 -11 10 -3 6 -1 10 4 10 6 0 11 -4 11 -10z m-371 -117 c-6 -36 3 -42 61
-49 33 -4 64 -12 68 -19 4 -7 14 -15 22 -19 8 -3 3 -4 -12 -1 -14 3 -28 1 -30
-4 -2 -4 -29 -12 -60 -15 -56 -7 -58 -7 -58 16 0 13 -3 40 -6 61 -5 24 -3 37
5 37 6 0 10 -3 10 -7z m234 -90 c-7 -2 -21 -2 -30 0 -10 3 -4 5 12 5 17 0 24
-2 18 -5z m855 -91 c3 -9 -3 -13 -19 -10 -12 1 -24 9 -27 16 -3 9 3 13 19 10
12 -1 24 -9 27 -16z m242 -53 c0 -5 -4 -9 -10 -9 -5 0 -10 7 -10 16 0 8 5 12
10 9 6 -3 10 -10 10 -16z m-1130 -23 c0 -3 -13 -11 -30 -20 -24 -12 -30 -12
-30 -1 0 13 17 21 48 24 6 0 12 -1 12 -3z m-69 -56 c10 -27 15 -30 52 -30 31
0 38 -3 27 -10 -22 -14 -57 -12 -90 5 -30 16 -43 39 -16 29 11 -4 13 0 9 15
-8 32 7 25 18 -9z m-171 -80 c0 -11 -5 -22 -11 -26 -16 -10 -32 11 -24 34 7
25 35 18 35 -8z m1548 10 c12 -11 26 -20 31 -20 10 0 111 -95 111 -105 0 -3
-11 2 -25 11 -14 9 -25 20 -25 24 0 5 -31 29 -70 54 -38 26 -70 49 -70 51 0
12 28 3 48 -15z m-1600 -67 c-2 -13 -11 -17 -32 -15 -19 3 -42 -6 -71 -27 -23
-17 -45 -28 -49 -24 -8 8 61 57 99 71 44 15 57 14 53 -5z m-837 -130 c-6 -21
-11 -69 -11 -108 0 -50 -3 -66 -10 -55 -12 17 -4 138 12 190 15 46 22 22 9
-27z m83 -120 c-3 -16 -14 -35 -23 -43 -25 -22 -48 -73 -56 -122 -13 -80 -24
-76 -25 10 0 73 2 82 18 82 18 0 42 37 42 65 0 13 26 34 43 35 4 0 5 -12 1
-27z m280 -1344 c-24 -27 -30 -15 -9 18 12 17 20 23 23 15 2 -7 -4 -22 -14
-33z m-53 -71 c-11 -18 -21 -26 -21 -18 0 19 30 63 37 56 3 -3 -4 -20 -16 -38z
m2359 -167 c0 -6 -4 -13 -10 -16 -5 -3 -10 1 -10 9 0 9 5 16 10 16 6 0 10 -4
10 -9z m52 -59 c7 -7 21 -12 33 -12 11 0 27 -5 35 -10 24 -16 -6 -29 -44 -20
-33 7 -86 37 -86 49 0 11 50 5 62 -7z m-2583 -1 c40 -8 80 -40 81 -63 0 -19
-41 -6 -67 21 -27 26 -33 28 -83 23 -30 -3 -74 -13 -98 -23 -49 -21 -102 -27
-69 -8 30 17 151 58 172 58 11 0 40 -4 64 -8z m30 -85 c9 -10 8 -16 -3 -26
-19 -15 -36 -5 -36 21 0 22 22 25 39 5z m2881 -18 c0 -4 -6 -8 -14 -8 -8 0
-17 4 -20 8 -2 4 4 8 15 8 10 0 19 -4 19 -8z m-289 -80 c5 -10 9 -24 9 -33 0
-8 19 -24 43 -36 23 -12 50 -28 59 -36 10 -9 27 -13 41 -10 32 9 82 -6 82 -24
0 -11 -12 -13 -55 -10 -30 2 -57 6 -60 10 -9 12 -88 34 -99 27 -6 -4 -11 -2
-11 3 0 6 -17 19 -37 28 -47 22 -54 55 -21 105 22 34 23 35 32 14 4 -11 12
-29 17 -38z m-2991 42 c0 -13 -28 -25 -38 -16 -3 4 0 11 8 16 20 13 30 12 30
0z m68 -7 c-10 -2 -26 -2 -35 0 -10 3 -2 5 17 5 19 0 27 -2 18 -5z m-101 -53
c-3 -10 -2 -19 2 -18 3 1 18 -4 34 -10 19 -8 27 -19 27 -37 0 -14 7 -28 15
-31 32 -13 13 -24 -39 -24 -73 0 -91 -21 -44 -50 18 -11 45 -20 61 -20 20 0
27 -5 27 -20 0 -11 12 -27 28 -37 52 -34 55 -45 19 -75 l-32 -27 27 -10 c38
-14 43 -29 14 -42 -22 -10 -29 -9 -50 12 -17 17 -23 31 -20 46 8 31 -52 57
-95 40 -26 -9 -33 -7 -68 18 -21 17 -51 42 -66 58 -23 24 -26 31 -15 44 10 12
9 18 -6 28 -17 13 -16 15 11 31 72 45 86 74 36 74 -24 0 -23 2 18 34 32 26 54
35 83 35 33 1 38 -2 33 -19z m234 -7 c13 -15 11 -16 -21 -9 -47 9 -63 26 -23
26 17 0 37 -8 44 -17z m189 -84 c-2 -134 -2 -134 -30 -134 -23 0 -25 3 -22 38
2 22 -1 37 -7 37 -6 0 -11 -6 -11 -12 0 -13 -44 -38 -67 -38 -24 0 -13 15 28
38 36 21 40 26 34 51 -4 21 -2 30 9 34 9 4 16 18 16 31 0 26 29 51 43 37 4 -4
7 -41 7 -82z m2635 81 c3 -5 1 -10 -4 -10 -6 0 -11 5 -11 10 0 6 2 10 4 10 3
0 8 -4 11 -10z m277 -62 c-9 -9 -12 -8 -12 3 0 8 -9 22 -20 32 -11 9 -20 22
-20 29 0 6 14 -3 32 -21 24 -24 28 -35 20 -43z m-37 2 c8 -13 -5 -13 -25 0
-13 8 -13 10 2 10 9 0 20 -4 23 -10z m-218 -117 c9 -16 30 -41 46 -56 35 -35
29 -44 -21 -28 -28 10 -40 21 -48 44 -6 18 -14 40 -19 50 -12 29 22 20 42 -10z
m-2837 -3 c0 -5 -5 -10 -11 -10 -5 0 -7 5 -4 10 3 6 8 10 11 10 2 0 4 -4 4
-10z m3873 -25 c1 -5 -6 -11 -15 -13 -11 -2 -18 3 -18 13 0 17 30 18 33 0z
m-3803 -51 c-18 -21 -24 -10 -8 15 7 12 14 17 16 11 2 -6 -2 -17 -8 -26z
m2989 7 c8 -14 7 -20 -3 -24 -18 -7 -26 1 -26 25 0 24 17 23 29 -1z m-3776
-27 c31 -6 32 -28 1 -30 -47 -3 -54 -5 -54 -19 0 -12 12 -15 58 -14 48 2 67
-3 126 -34 38 -21 77 -37 86 -37 10 0 29 -9 43 -20 17 -14 40 -20 74 -20 60 0
139 -25 147 -47 4 -9 5 -17 4 -18 -2 -2 -34 3 -73 11 -38 7 -88 16 -109 19
-22 3 -69 21 -105 40 l-66 35 -42 -17 c-28 -12 -47 -28 -54 -45 -14 -34 -26
-36 -25 -6 1 15 -7 27 -21 33 -28 12 -29 19 -1 47 l21 21 -24 9 c-13 5 -53 8
-89 8 -74 -2 -150 9 -150 21 0 5 19 19 41 31 23 13 51 29 63 36 20 12 73 10
149 -4z m3298 -7 c-1 -12 -15 -9 -19 4 -3 6 1 10 8 8 6 -3 11 -8 11 -12z
m-2481 -36 c0 -5 -12 -16 -26 -26 -21 -14 -28 -15 -35 -4 -4 7 -3 19 3 26 12
15 58 18 58 4z m150 -41 c5 0 10 -5 10 -11 0 -6 11 -25 25 -43 16 -21 22 -39
18 -54 -3 -12 -1 -22 3 -22 27 -1 34 -17 20 -44 -22 -44 -1 -91 29 -66 13 10
15 8 15 -18 0 -36 -15 -50 -28 -26 -7 13 -17 15 -46 10 -20 -4 -36 -12 -36
-18 0 -7 -4 -7 -12 -1 -7 6 -23 9 -35 8 -14 -1 -23 4 -23 12 0 8 4 12 9 9 14
-9 32 20 27 45 -2 13 -10 37 -17 52 -10 22 -10 30 -1 36 9 6 7 14 -8 33 -11
15 -20 35 -20 46 0 12 -4 24 -10 27 -5 3 -3 19 7 40 l16 34 23 -24 c13 -14 28
-25 34 -25z m3563 24 c18 -9 38 -20 46 -24 8 -3 17 -12 19 -18 7 -21 -24 -13
-51 12 -15 14 -35 30 -44 35 -29 17 -4 12 30 -5z m-993 -31 c0 -23 -17 -49
-26 -41 -9 10 4 58 16 58 6 0 10 -8 10 -17z m-3660 -17 c0 -9 -30 -14 -35 -6
-4 6 3 10 14 10 12 0 21 -2 21 -4z m4867 -76 c91 -56 105 -70 71 -70 -24 1
-159 88 -166 108 -7 21 12 13 95 -38z m-4224 3 c8 -7 -11 -33 -23 -33 -5 0 -6
9 -3 20 5 20 15 25 26 13z m-577 -30 c-10 -10 -19 5 -10 18 6 11 8 11 12 0 2
-7 1 -15 -2 -18z m881 -30 c13 -36 6 -53 -19 -53 -17 0 -19 4 -13 30 4 19 3
30 -4 30 -6 0 -11 5 -11 10 0 23 38 9 47 -17z m-884 -20 c18 -11 5 -25 -20
-20 -34 6 -96 -49 -72 -64 8 -5 22 -6 32 -3 9 3 17 1 17 -5 0 -6 10 -13 23
-16 12 -4 35 -24 50 -46 16 -21 33 -37 38 -34 5 4 9 3 9 -2 -1 -4 -16 -15 -35
-24 -34 -16 -34 -16 -37 10 -3 24 -7 26 -50 26 -54 0 -57 3 -75 53 -11 33 -10
42 8 80 12 23 28 46 37 51 15 9 54 5 75 -6z m3649 -8 c40 -22 45 -28 40 -53
-3 -15 -13 -33 -23 -40 -15 -10 -16 -18 -8 -39 7 -18 6 -30 -1 -37 -7 -7 -10
-3 -10 12 0 13 -7 36 -15 53 -9 16 -13 34 -10 40 4 5 0 21 -9 34 -14 22 -22
55 -12 55 2 0 24 -11 48 -25z m-2496 -12 c-10 -10 -19 5 -10 18 6 11 8 11 12
0 2 -7 1 -15 -2 -18z m2636 -68 c12 -26 17 -28 55 -25 22 1 53 -41 53 -73 0
-8 9 -22 20 -32 30 -27 25 -35 -24 -35 -42 0 -45 2 -51 31 -7 30 -8 31 -52 24
-43 -6 -44 -6 -33 15 9 16 8 25 -1 36 -10 12 -8 16 10 21 14 3 18 9 13 17 -15
19 -22 46 -11 46 5 0 15 -11 21 -25z m-3147 5 c3 -5 1 -10 -4 -10 -6 0 -11 5
-11 10 0 6 2 10 4 10 3 0 8 -4 11 -10z m185 -25 c15 -14 21 -14 53 0 37 15 37
15 37 -9 0 -14 -4 -28 -10 -31 -5 -3 -10 -20 -10 -36 0 -34 -31 -101 -37 -82
-3 7 3 20 12 30 13 12 16 27 12 56 -6 46 -15 58 -28 35 -7 -13 -62 -48 -74
-48 -2 0 1 93 4 98 3 7 27 0 41 -13z m146 -52 c-11 -11 -17 4 -9 23 7 18 8 18
11 1 2 -10 1 -21 -2 -24z m72 9 c2 -7 -3 -12 -12 -12 -9 0 -16 7 -16 16 0 17
22 14 28 -4z m58 -54 c-15 -21 -16 -22 -16 -2 0 11 6 26 12 32 19 19 22 -4 4
-30z m2521 24 c20 -13 21 -56 0 -60 -16 -3 -75 35 -76 50 -2 14 58 22 76 10z
m-3053 -8 c22 -9 20 -24 -3 -24 -21 0 -34 13 -24 24 8 7 8 7 27 0z m-85 -18
c10 -12 8 -13 -8 -9 -12 3 -21 9 -21 14 0 14 16 11 29 -5z m2536 4 c3 -5 15
-10 26 -10 11 0 18 -4 14 -10 -6 -10 -29 -4 -60 17 -16 11 -17 13 -3 13 9 0
20 -4 23 -10z m465 -21 c0 -11 -27 -12 -34 0 -3 4 -3 11 0 14 8 8 34 -3 34
-14z m-2845 -7 c-3 -3 -11 0 -18 7 -9 10 -8 11 6 5 10 -3 15 -9 12 -12z m595
-27 c14 -16 10 -18 -14 -9 -9 3 -16 10 -16 15 0 14 16 11 30 -6z m-1074 -36
c3 -6 1 -15 -6 -19 -16 -10 -52 2 -58 18 -5 15 54 16 64 1z m1056 -11 c27 -13
44 -44 27 -50 -6 -2 -1 -13 11 -26 11 -12 17 -22 12 -22 -11 0 -3 -87 10 -113
12 -23 7 -29 -12 -17 -9 6 -13 23 -12 48 3 49 -18 75 -54 66 -13 -3 -24 -2
-24 4 0 5 9 12 20 15 26 7 26 41 -1 78 -22 32 -17 36 23 17z m-573 -93 l21
-36 -25 -9 c-14 -5 -25 -15 -25 -21 0 -7 -8 -5 -20 6 l-20 18 20 20 c16 14 18
22 10 32 -12 15 -4 39 10 30 4 -3 17 -21 29 -40z m676 15 c-3 -5 -10 -10 -16
-10 -5 0 -9 5 -9 10 0 6 7 10 16 10 8 0 12 -4 9 -10z m2591 -27 c6 -13 31 -38
57 -58 44 -34 66 -69 52 -83 -4 -4 -23 12 -44 34 -20 23 -46 47 -58 53 -13 7
-23 18 -23 25 0 16 -43 26 -111 26 -27 0 -49 4 -49 9 0 14 28 19 100 18 56 -2
66 -5 76 -24z m-3201 -32 c3 -5 1 -12 -5 -16 -5 -3 -10 1 -10 9 0 18 6 21 15
7z m-1195 -9 c0 -8 -85 -72 -95 -72 -11 0 11 36 34 57 26 22 61 31 61 15z
m780 -22 c0 -5 -7 -10 -15 -10 -8 0 -15 5 -15 10 0 6 7 10 15 10 8 0 15 -4 15
-10z m4294 -131 c-4 -7 4 -20 17 -30 23 -18 23 -19 3 -19 -12 0 -27 7 -34 15
-13 16 -7 45 10 45 6 0 8 -5 4 -11z m-1869 -88 c-4 -10 -8 -11 -20 -1 -14 12
-12 48 3 75 8 13 23 -56 17 -74z m1305 69 c0 -13 -20 -13 -40 0 -12 8 -9 10
13 10 15 0 27 -4 27 -10z m566 -131 c4 -7 -1 -16 -10 -21 -21 -12 -21 -73 -1
-90 48 -40 50 -43 32 -46 -9 -2 -25 2 -37 8 -35 19 -200 -8 -200 -33 0 -5 -6
-4 -14 2 -9 7 -22 8 -37 3 -29 -10 -84 -1 -81 13 1 6 17 13 37 17 19 4 52 19
74 32 21 14 55 32 75 40 22 9 34 20 31 28 -12 31 113 76 131 47z m-1823 -56
c-7 -2 -19 -2 -25 0 -7 3 -2 5 12 5 14 0 19 -2 13 -5z m54 1 c-3 -3 -12 -4
-19 -1 -8 3 -5 6 6 6 11 1 17 -2 13 -5z m-2657 -160 c0 -2 -9 -4 -21 -4 -11 0
-18 4 -14 10 5 8 35 3 35 -6z m4328 -15 c1 -8 -9 -22 -24 -29 -28 -15 -45 -46
-37 -67 6 -15 84 -18 99 -4 11 10 74 -15 74 -30 0 -5 4 -8 9 -4 6 3 13 -11 16
-32 8 -50 17 -65 46 -80 21 -11 22 -13 4 -13 -11 0 -26 4 -34 9 -17 11 -44 84
-27 74 8 -4 8 -3 0 6 -6 7 -28 13 -48 14 -20 1 -36 5 -36 9 0 14 -41 19 -56 7
-12 -9 -20 -9 -38 1 -19 10 -31 10 -60 -1 -43 -16 -68 -39 -42 -39 10 0 14 -4
11 -10 -10 -17 -24 -11 -60 24 -34 34 -35 46 -5 46 19 0 56 37 47 47 -4 3 -37
1 -74 -5 -79 -13 -103 -3 -64 29 30 24 91 29 99 8 7 -17 48 -8 107 26 64 35
88 39 93 14z m-4433 -9 c8 -13 -15 -13 -35 0 -12 8 -11 10 7 10 12 0 25 -4 28
-10z m157 -52 c-7 -7 -12 -8 -12 -2 0 14 12 26 19 19 2 -3 -1 -11 -7 -17z m73
12 c3 -5 2 -10 -4 -10 -5 0 -13 5 -16 10 -3 6 -2 10 4 10 5 0 13 -4 16 -10z
m3323 -49 c12 -11 22 -22 22 -25 0 -13 -34 -5 -46 12 -27 35 -13 43 24 13z
m261 8 c-18 -11 -39 -11 -39 0 0 5 12 9 26 9 18 0 22 -3 13 -9z m-249 -75 c0
-8 -5 -12 -10 -9 -6 4 -8 11 -5 16 9 14 15 11 15 -7z m1105 -194 c3 -5 2 -10
-4 -10 -5 0 -13 5 -16 10 -3 6 -2 10 4 10 5 0 13 -4 16 -10z m-3685 -44 c0 -2
-9 -6 -20 -9 -11 -3 -18 -1 -14 4 5 9 34 13 34 5z m82 -8 c-9 -9 -15 -9 -24 0
-9 9 -7 12 12 12 19 0 21 -3 12 -12z m33 -28 c3 -5 1 -10 -4 -10 -6 0 -11 5
-11 10 0 6 2 10 4 10 3 0 8 -4 11 -10z m-15 -80 c0 -5 -4 -10 -9 -10 -6 0 -13
5 -16 10 -3 6 1 10 9 10 9 0 16 -4 16 -10z m847 -96 c-3 -3 -12 -4 -19 -1 -8
3 -5 6 6 6 11 1 17 -2 13 -5z m-297 -308 c0 -3 -4 -8 -10 -11 -5 -3 -10 -1
-10 4 0 6 5 11 10 11 6 0 10 -2 10 -4z m-7 -123 c2 -18 0 -33 -5 -33 -4 0 -8
13 -8 29 0 16 -2 44 -5 62 l-5 34 10 -30 c6 -16 12 -45 13 -62z m173 -15 c-2
-35 -26 -34 -26 1 0 35 -17 39 -78 22 -19 -6 -32 -6 -32 0 0 19 110 30 126 12
6 -7 11 -23 10 -35z m-121 -18 c3 -5 2 -10 -4 -10 -5 0 -13 5 -16 10 -3 6 -2
10 4 10 5 0 13 -4 16 -10z m205 -170 c0 -5 -7 -10 -15 -10 -8 0 -15 5 -15 10
0 6 7 10 15 10 8 0 15 -4 15 -10z m-12 -161 c2 -19 -1 -16 -13 10 -8 19 -18
31 -22 28 -8 -8 -33 12 -33 26 0 20 65 -41 68 -64z m-172 52 c-4 -5 0 -11 6
-14 7 -2 10 -8 6 -12 -8 -9 -38 12 -38 26 0 5 7 9 16 9 8 0 13 -4 10 -9z m-76
-21 c0 -11 -2 -20 -4 -20 -2 0 -6 9 -9 20 -3 11 -1 20 4 20 5 0 9 -9 9 -20z
m151 -36 c11 -14 9 -15 -16 -12 -16 1 -30 9 -33 16 -6 18 33 15 49 -4z m62
-41 c-22 -17 -30 -16 -36 2 -5 11 1 14 24 12 26 -2 27 -3 12 -14z m-33 -69 c0
-8 -4 -14 -10 -14 -5 0 -10 9 -10 21 0 11 5 17 10 14 6 -3 10 -13 10 -21z
m-141 -16 c4 -13 11 -41 15 -63 11 -60 -16 -29 -30 35 -11 50 -1 69 15 28z
m301 11 c0 -5 -4 -8 -9 -5 -5 3 -28 -1 -51 -9 -51 -18 -53 -18 -48 -3 8 23
108 39 108 17z m1795 -418 c-3 -6 -22 -11 -41 -11 -25 0 -34 -4 -34 -17 0 -9
-3 -14 -6 -10 -8 7 -34 -17 -34 -32 0 -6 -11 -11 -25 -11 -14 0 -25 6 -25 13
1 20 76 67 122 76 48 8 53 7 43 -8z m-15 -76 c14 -16 10 -18 -14 -9 -9 3 -16
10 -16 15 0 14 16 11 30 -6z m-4145 -105 c3 -5 1 -10 -4 -10 -6 0 -11 5 -11
10 0 6 2 10 4 10 3 0 8 -4 11 -10z m4201 -27 c-7 -7 -26 7 -26 19 0 6 6 6 15
-2 9 -7 13 -15 11 -17z m-201 -56 c47 -45 56 -67 29 -67 -13 0 -15 -6 -9 -32
14 -71 17 -119 6 -132 -6 -7 -10 -24 -10 -37 1 -13 -4 -37 -10 -53 l-12 -29
-30 29 c-26 24 -28 30 -13 33 29 5 40 23 47 72 3 24 9 52 12 60 4 11 -7 25
-33 43 -35 24 -40 33 -45 77 -6 51 -1 79 14 79 5 0 29 -19 54 -43z m-65 -169
c0 -13 -23 -5 -28 10 -2 7 2 10 12 6 9 -3 16 -11 16 -16z m-979 -39 c47 -6 87
-17 91 -24 5 -7 17 -11 28 -8 14 4 20 0 20 -10 0 -8 12 -20 28 -25 23 -9 17
-11 -41 -11 -47 -1 -73 4 -83 13 -20 20 -18 24 10 19 13 -3 27 0 30 5 7 12
-60 24 -139 26 -33 0 -61 -6 -78 -17 -35 -23 -49 -1 -16 24 28 22 40 22 150 8z
m1194 -29 c3 -6 -1 -7 -9 -4 -18 7 -21 14 -7 14 6 0 13 -4 16 -10z m-261 -26
c3 -9 6 -24 6 -34 0 -9 7 -23 15 -30 37 -31 6 -80 -58 -92 -21 -4 -27 -2 -25
10 2 10 -7 18 -22 22 l-25 6 38 38 c26 26 37 47 37 67 0 31 23 41 34 13z
m-4234 -54 c-6 -11 -13 -20 -16 -20 -2 0 0 9 6 20 6 11 13 20 16 20 2 0 0 -9
-6 -20z m5238 -10 c45 -32 51 -44 26 -54 -38 -14 -62 -6 -83 30 -12 19 -21 39
-21 45 0 18 38 8 78 -21z m-1918 -5 c23 -12 35 -13 57 -4 42 17 323 15 334 -3
13 -20 -5 -30 -35 -18 -15 5 -44 10 -64 10 -20 0 -43 4 -51 9 -11 7 -74 -4
-90 -16 -2 -1 4 -12 15 -24 18 -20 18 -21 -1 -35 -10 -8 -30 -14 -43 -14 -36
0 -62 -18 -62 -44 0 -25 -22 -51 -33 -39 -4 3 -7 16 -7 28 0 29 -19 45 -51 45
-43 0 -59 -10 -59 -38 0 -25 -1 -25 -15 -6 -19 25 -19 89 1 108 14 15 14 16
-3 17 -10 0 -2 8 22 19 50 23 50 23 85 5z m714 -36 c66 -26 67 -37 1 -19 -37
10 -51 10 -73 0 -34 -17 -62 -22 -80 -15 -12 4 -9 11 9 29 31 31 72 32 143 5z
m-854 -87 c0 -7 -4 -10 -10 -7 -5 3 -10 16 -10 28 0 18 2 19 10 7 5 -8 10 -21
10 -28z m548 -70 c17 -22 16 -72 -2 -72 -38 0 -103 102 -73 113 14 5 56 -18
75 -41z m572 44 c0 -2 -7 -7 -16 -10 -8 -3 -12 -2 -9 4 6 10 25 14 25 6z m323
-12 c9 -3 17 -10 17 -16 0 -7 -15 -8 -42 -3 -24 4 -56 7 -73 6 -29 0 -29 0
-10 15 19 14 54 14 108 -2z m-209 -4 c-7 -7 -19 -7 -35 -1 -23 9 -22 10 11 10
23 1 31 -2 24 -9z m-1959 -11 c12 -19 -5 -23 -22 -6 -16 16 -16 17 -1 17 9 0
20 -5 23 -11z m1329 -46 c3 -24 2 -43 -3 -43 -11 0 -24 67 -15 81 8 14 10 10
18 -38z m-1089 7 c3 -5 -1 -10 -9 -10 -9 0 -16 5 -16 10 0 6 4 10 9 10 6 0 13
-4 16 -10z m618 -30 c-7 -8 -22 24 -16 34 4 5 10 1 13 -10 4 -10 6 -21 3 -24z
m1413 31 c-8 -12 18 -21 62 -21 25 -1 32 -3 22 -9 -20 -10 -139 1 -122 12 7 5
10 13 7 18 -4 5 3 9 15 9 12 0 19 -4 16 -9z m-1778 -36 c-3 -3 -9 2 -12 12 -6
14 -5 15 5 6 7 -7 10 -15 7 -18z m489 -4 c12 -9 23 -21 23 -27 0 -6 11 -16 24
-22 25 -11 45 -58 21 -48 -8 3 -16 0 -19 -7 -3 -9 -8 -8 -15 3 -8 11 -11 12
-11 2 0 -8 -9 -12 -22 -10 -24 3 -56 51 -58 88 l-2 25 -7 -24 c-6 -23 -7 -22
-18 13 l-11 37 36 -7 c21 -4 47 -14 59 -23z m-457 -55 c0 -6 -7 -1 -15 10 -8
10 -15 23 -15 28 0 6 7 1 15 -10 8 -10 15 -23 15 -28z m2400 14 c0 -5 -4 -10
-9 -10 -6 0 -13 5 -16 10 -3 6 1 10 9 10 9 0 16 -4 16 -10z m-417 -7 c-7 -2
-19 -2 -25 0 -7 3 -2 5 12 5 14 0 19 -2 13 -5z m-713 -22 c0 -6 -4 -13 -10
-16 -5 -3 -10 1 -10 9 0 9 5 16 10 16 6 0 10 -4 10 -9z m-972 -41 c7 0 12 4
12 9 0 5 6 11 14 14 12 5 12 1 0 -30 -8 -19 -14 -45 -13 -57 3 -44 0 -47 -26
-30 -19 12 -24 22 -19 37 4 12 2 17 -4 13 -17 -10 -42 5 -42 26 0 11 5 28 11
40 l11 20 22 -21 c12 -12 28 -21 34 -21z m1807 -8 c-6 -7 -35 18 -35 31 0 5 9
2 20 -8 11 -10 18 -20 15 -23z m-1699 -49 c-12 -12 -29 15 -21 34 7 17 8 16
18 -5 5 -12 7 -25 3 -29z m1136 1 c47 -24 45 -36 -6 -29 -39 6 -46 5 -46 -9 0
-9 -4 -16 -10 -16 -5 0 -10 18 -10 41 0 37 2 40 23 33 12 -3 34 -13 49 -20z
m615 -50 c-9 -9 -71 12 -75 25 -3 10 2 12 17 8 11 -3 24 -1 27 5 3 5 13 0 21
-12 8 -12 13 -24 10 -26z m-1827 -70 c0 -24 -4 -44 -10 -44 -5 0 -10 23 -10
51 0 31 4 48 10 44 6 -3 10 -26 10 -51z m273 26 c30 0 18 -28 -14 -35 -29 -7
-31 -10 -26 -41 l6 -34 -47 1 -47 1 36 10 c36 9 37 10 23 38 -13 25 -12 31 3
58 16 27 20 29 34 16 8 -8 23 -14 32 -14z m939 -2 c-12 -12 -35 -1 -27 12 3 5
13 6 21 3 10 -4 12 -9 6 -15z m-822 -80 c0 -16 -3 -19 -11 -11 -6 6 -8 16 -5
22 11 17 16 13 16 -11z m-405 -18 c13 0 16 -3 8 -11 -15 -15 -95 -7 -101 10
-4 11 3 13 34 8 22 -4 48 -7 59 -7z m55 -6 c0 -8 -5 -12 -10 -9 -6 4 -8 11 -5
16 9 14 15 11 15 -7z m409 -160 c-5 -5 -5 -21 -2 -33 4 -18 2 -22 -8 -19 -8 3
-16 20 -19 38 -4 26 -11 36 -30 41 -14 4 -19 7 -12 8 7 1 12 14 12 32 0 24 4
30 15 25 9 -3 20 3 28 15 11 17 13 13 18 -38 3 -32 2 -63 -2 -69z m-528 -6
c-3 -41 -5 -48 -12 -31 -8 23 -1 95 10 89 3 -2 4 -28 2 -58z m-71 -20 c0 -25
-3 -29 -10 -18 -13 20 -13 50 0 50 6 0 10 -15 10 -32z m-3795 -64 c61 -24 81
-47 53 -57 -18 -6 -138 55 -138 70 0 18 11 17 85 -13z m4305 -69 c0 -33 -12
-46 -25 -25 -8 12 5 60 16 60 5 0 9 -16 9 -35z m1260 -25 c0 -5 -4 -10 -9 -10
-14 0 3 -52 20 -61 7 -4 23 -11 34 -15 15 -7 10 -9 -24 -12 -23 -2 -44 -2 -46
0 -1 2 -6 27 -10 56 -6 48 -5 52 14 52 12 0 21 -4 21 -10z m-1180 -24 c0 -16
-18 -31 -27 -22 -8 8 5 36 17 36 5 0 10 -6 10 -14z m-3900 -59 c17 -35 30 -70
30 -78 0 -13 -49 82 -63 124 -14 39 5 13 33 -46z m3821 27 c17 -21 4 -28 -30
-16 -28 10 -31 9 -31 -10 0 -28 -13 -15 -16 16 -4 36 50 43 77 10z m-4376 -4
c3 -5 1 -10 -4 -10 -6 0 -11 5 -11 10 0 6 2 10 4 10 3 0 8 -4 11 -10z m4285
-61 c0 -10 -4 -19 -10 -19 -5 0 -10 12 -10 26 0 14 4 23 10 19 6 -3 10 -15 10
-26z m-111 -19 c0 -10 -3 -8 -9 5 -12 27 -12 43 0 25 5 -8 9 -22 9 -30z m256
20 c-10 -11 -20 -18 -23 -15 -7 6 18 35 31 35 5 0 2 -9 -8 -20z m-145 -100
c-28 -22 -40 -25 -40 -10 0 6 10 15 23 20 37 15 44 11 17 -10z m-73 -46 c-3
-3 -12 -4 -19 -1 -8 3 -5 6 6 6 11 1 17 -2 13 -5z m-3570 -36 c-3 -8 -6 -5 -6
6 -1 11 2 17 5 13 3 -3 4 -12 1 -19z m68 -160 c9 -29 18 -60 21 -68 2 -8 -9
12 -25 45 -25 52 -30 75 -16 75 2 0 11 -24 20 -52z m798 -213 c-3 -9 -8 -14
-10 -11 -3 3 -2 9 2 15 9 16 15 13 8 -4z m-65 -65 c17 0 21 -25 15 -105 -8
-106 -25 -75 -32 58 0 16 -7 27 -15 27 -22 0 -29 19 -15 36 12 14 14 14 25 0
6 -9 16 -16 22 -16z m1357 -457 c5 -27 4 -32 -8 -27 -17 6 -31 50 -21 65 9 15
21 -1 29 -38z m-1537 16 c1 -8 -2 -27 -7 -41 -8 -20 -15 -25 -31 -21 -12 3
-19 11 -16 18 2 7 -2 22 -9 33 -18 24 -15 27 27 27 22 0 34 -5 36 -16z m750
-19 c9 -5 29 -14 45 -20 15 -5 27 -17 27 -25 0 -12 -4 -14 -19 -5 -11 5 -31
10 -45 10 -14 0 -26 5 -26 10 0 6 -7 10 -15 10 -8 0 -15 7 -15 15 0 17 22 20
48 5z"/>
<path d="M4770 9075 c0 -10 65 -64 92 -76 15 -6 30 -19 33 -28 8 -26 59 -53
73 -39 28 28 9 61 -43 73 -17 4 -58 23 -92 42 -35 19 -63 31 -63 28z"/>
<path d="M5010 8903 c1 -5 21 -23 45 -41 34 -24 45 -29 45 -17 0 23 -45 65
-70 65 -11 0 -20 -3 -20 -7z"/>
<path d="M5196 8777 c3 -10 9 -15 12 -12 3 3 0 11 -7 18 -10 9 -11 8 -5 -6z"/>
<path d="M4790 8759 c0 -5 5 -7 10 -4 6 3 10 8 10 11 0 2 -4 4 -10 4 -5 0 -10
-5 -10 -11z"/>
<path d="M5020 8590 c0 -5 7 -10 16 -10 8 0 12 5 9 10 -3 6 -10 10 -16 10 -5
0 -9 -4 -9 -10z"/>
<path d="M2320 6122 c0 -9 80 -72 91 -72 25 0 14 23 -22 50 -41 29 -69 38 -69
22z"/>
<path d="M4507 2223 c-4 -3 -7 -17 -7 -30 0 -18 5 -23 25 -23 29 0 75 20 75
32 0 18 -78 36 -93 21z"/>
<path d="M5636 9131 c-4 -7 -5 -15 -2 -18 9 -9 19 4 14 18 -4 11 -6 11 -12 0z"/>
<path d="M5668 8254 c-5 -4 -8 -29 -8 -56 0 -26 -4 -48 -9 -48 -5 0 -12 -36
-16 -80 -5 -58 -11 -80 -21 -80 -8 0 -14 5 -14 10 0 6 -3 10 -7 10 -5 0 -9
-59 -11 -130 -2 -90 0 -130 8 -130 7 0 10 -40 8 -127 -3 -123 -2 -129 20 -151
14 -14 21 -30 18 -39 -13 -34 -18 -490 -6 -598 6 -60 11 -137 11 -170 0 -33 3
-76 7 -95 7 -32 11 -35 41 -32 20 2 50 -6 82 -23 30 -15 58 -23 69 -20 11 3
36 2 55 -4 26 -7 44 -6 61 1 32 15 30 23 -7 38 -17 7 -26 16 -21 19 13 9 23
321 10 321 -7 0 -9 19 -6 50 3 28 1 53 -3 56 -5 3 -9 16 -9 30 0 13 -4 24 -10
24 -6 0 -10 33 -10 80 0 64 -3 80 -15 80 -12 0 -15 16 -15 80 0 53 -4 80 -11
80 -8 0 -10 17 -7 50 3 28 1 53 -3 56 -5 3 -10 -21 -10 -53 -1 -57 -2 -56 -14
32 -7 50 -14 123 -14 163 -1 41 -5 72 -11 72 -6 0 -10 33 -10 79 0 53 -4 84
-13 93 -28 27 -39 61 -36 111 3 60 -8 117 -23 117 -7 0 -9 19 -6 50 4 41 2 53
-13 63 -9 7 -19 28 -21 46 -2 18 -6 29 -10 25z m26 -199 c-4 -8 -8 -15 -10
-15 -2 0 -4 7 -4 15 0 8 4 15 10 15 5 0 7 -7 4 -15z"/>
<path d="M6643 7230 c0 -25 2 -35 4 -22 2 12 2 32 0 45 -2 12 -4 2 -4 -23z"/>
<path d="M6682 7067 c-29 -31 -28 -37 8 -37 27 0 30 3 30 30 0 36 -9 38 -38 7z"/>
<path d="M6720 6325 c0 -8 7 -15 16 -15 14 0 14 3 4 15 -7 8 -14 15 -16 15 -2
0 -4 -7 -4 -15z"/>
<path d="M6120 6280 c0 -11 75 -49 98 -50 24 0 11 18 -28 39 -44 23 -70 27
-70 11z"/>
<path d="M5780 5855 c0 -9 5 -15 11 -13 6 2 11 8 11 13 0 5 -5 11 -11 13 -6 2
-11 -4 -11 -13z"/>
<path d="M2273 19 c-18 -5 -33 -12 -33 -14 0 -3 37 -5 82 -5 59 0 79 3 71 11
-15 15 -82 20 -120 8z"/>
<path d="M2420 15 c-11 -13 -9 -15 15 -15 16 0 25 5 23 12 -7 19 -24 20 -38 3z"/>
</g>
</svg>
