<?xml version="1.0" standalone="no"?>
<!DOCTYPE svg PUBLIC "-//W3C//DTD SVG 20010904//EN"
 "http://www.w3.org/TR/2001/REC-SVG-20010904/DTD/svg10.dtd">
<svg version="1.0" xmlns="http://www.w3.org/2000/svg"
 width="512.000000pt" height="512.000000pt" viewBox="0 0 512.000000 512.000000"
 preserveAspectRatio="xMidYMid meet">

<g transform="translate(0.000000,512.000000) scale(0.100000,-0.100000)"
fill="#000000" stroke="none">
<path d="M1847 3875 c-62 -23 -113 -71 -146 -137 l-31 -61 0 -328 c0 -317 1
-329 20 -339 15 -8 24 -6 40 10 19 19 20 32 20 333 0 309 0 314 23 358 16 29
40 54 72 74 l48 30 374 3 373 3 0 34 0 35 -377 -1 c-298 0 -386 -3 -416 -14z"/>
<path d="M3062 3618 c-8 -8 -12 -67 -12 -199 0 -177 1 -188 23 -220 29 -44 80
-69 140 -69 l47 0 0 40 0 40 -48 0 c-80 0 -82 6 -82 213 0 146 -3 178 -16 191
-19 19 -36 20 -52 4z"/>
<path d="M1672 2888 c-26 -26 -7 -128 24 -128 2 0 4 32 4 70 0 70 -5 81 -28
58z"/>
<path d="M1444 2710 c-12 -4 -31 -21 -43 -36 -20 -26 -21 -35 -21 -345 l0
-319 29 -32 29 -33 329 -3 c180 -2 370 0 421 3 l92 7 0 83 c0 76 -2 83 -19 78
-10 -2 -25 3 -35 12 -14 14 -16 44 -16 211 0 116 4 203 10 215 6 11 21 19 35
19 24 0 25 2 25 68 l0 69 -172 6 c-239 9 -639 8 -664 -3z m714 -149 c8 -4 12
-19 10 -32 -3 -22 -9 -24 -60 -27 l-58 -3 0 -184 c0 -165 -2 -185 -17 -193
-10 -6 -28 -6 -40 -1 -23 8 -23 11 -23 193 l0 185 -57 3 c-46 2 -58 7 -61 21
-8 41 13 47 157 47 75 0 142 -4 149 -9z"/>
<path d="M1672 1748 c-13 -13 -16 -75 -6 -102 3 -9 12 -16 20 -16 11 0 14 16
14 65 0 65 -6 75 -28 53z"/>
<path d="M1682 1528 c-7 -7 -12 -43 -12 -93 0 -72 4 -90 31 -145 33 -64 86
-112 152 -137 22 -8 147 -12 410 -12 l377 -1 0 35 0 35 -353 0 c-198 0 -367 4
-386 10 -47 13 -93 47 -122 88 -19 28 -24 52 -29 124 -3 63 -9 91 -20 98 -20
13 -34 12 -48 -2z"/>
</g>
</svg>
